<svg width="140" height="73" viewBox="0 0 140 73" fill="none" xmlns="http://www.w3.org/2000/svg">
<path fill-rule="evenodd" clip-rule="evenodd" d="M45.6248 24.3333C45.6248 27.5601 44.343 30.6547 42.0613 32.9364C39.7796 35.2181 36.685 36.5 33.4582 36.5C30.2314 36.5 27.1367 35.2181 24.855 32.9364C22.5733 30.6547 21.2915 27.5601 21.2915 24.3333C21.2915 21.1065 22.5733 18.0119 24.855 15.7302C27.1367 13.4485 30.2314 12.1666 33.4582 12.1666C36.685 12.1666 39.7796 13.4485 42.0613 15.7302C44.343 18.0119 45.6248 21.1065 45.6248 24.3333ZM39.5415 24.3333C39.5415 25.9467 38.9006 27.494 37.7597 28.6349C36.6189 29.7757 35.0716 30.4166 33.4582 30.4166C31.8448 30.4166 30.2975 29.7757 29.1566 28.6349C28.0158 27.494 27.3748 25.9467 27.3748 24.3333C27.3748 22.7199 28.0158 21.1726 29.1566 20.0317C30.2975 18.8909 31.8448 18.25 33.4582 18.25C35.0716 18.25 36.6189 18.8909 37.7597 20.0317C38.9006 21.1726 39.5415 22.7199 39.5415 24.3333Z" fill="#784AAA"/>
<path fill-rule="evenodd" clip-rule="evenodd" d="M33.4583 0C14.9802 0 0 14.9802 0 33.4583C0 51.9365 14.9802 66.9167 33.4583 66.9167C51.9365 66.9167 66.9167 51.9365 66.9167 33.4583C66.9167 14.9802 51.9365 0 33.4583 0ZM6.08333 33.4583C6.08333 39.8154 8.25204 45.6676 11.8868 50.3152C14.4395 46.963 17.7326 44.2464 21.5089 42.3774C25.2853 40.5085 29.4426 39.538 33.656 39.5417C37.815 39.5377 41.92 40.4831 45.6582 42.3059C49.3965 44.1286 52.6694 46.7806 55.2275 50.0597C57.863 46.6032 59.6375 42.5688 60.4041 38.2903C61.1708 34.0118 60.9076 29.6122 59.6364 25.4557C58.3652 21.2991 56.1225 17.5049 53.0938 14.3872C50.0651 11.2695 46.3375 8.91774 42.2195 7.52663C38.1015 6.13552 33.7114 5.74501 29.4125 6.38742C25.1136 7.02982 21.0294 8.68667 17.498 11.2209C13.9666 13.7551 11.0893 17.0938 9.1044 20.9607C7.11947 24.8277 6.08388 29.1117 6.08333 33.4583ZM33.4583 60.8333C27.1741 60.8428 21.0796 58.6809 16.206 54.7135C18.1677 51.9052 20.7787 49.6124 23.8168 48.03C26.855 46.4476 30.2305 45.6226 33.656 45.625C37.0389 45.6223 40.3735 46.4267 43.3831 47.9714C46.3926 49.5161 48.9902 51.7566 50.9601 54.5067C46.0487 58.6029 39.8537 60.8423 33.4583 60.8333Z" fill="#784AAA"/>
</svg>
